<svg width="23" height="13" viewBox="0 0 23 13" fill="none" xmlns="http://www.w3.org/2000/svg">
<path d="M4.21637 2.75748C4.14655 2.52715 4.14267 2.28754 4.44237 2.19098C4.72268 2.10094 4.87499 2.26908 4.95263 2.50968C5.11164 2.96381 5.27973 3.41921 5.42843 3.88111C5.4876 4.0548 5.47674 4.20042 5.38927 4.29869C5.21434 4.49523 4.82171 4.39506 4.72594 4.15196C4.5216 3.69157 4.36383 3.22841 4.21637 2.75748ZM4.32978 5.08119C4.21339 4.85363 4.02393 4.75391 3.78769 4.85923C3.56052 4.96581 3.50468 5.16959 3.61982 5.40617C3.82133 5.82019 3.99315 6.2485 4.20496 6.65474C4.48999 7.19983 4.78532 7.73716 5.11158 8.25116C5.17947 8.36168 5.41142 8.42128 5.55362 8.39493C5.58206 8.38966 5.61175 8.37537 5.64268 8.35205C5.7792 8.23296 5.79097 8.01392 5.72274 7.83899C5.26749 6.92097 4.7941 6.00045 4.32978 5.08119ZM7.23352 8.20383C7.47973 8.02632 7.34805 7.84264 7.22792 7.64215C6.99673 7.24242 6.7643 6.8517 6.56279 6.43768C6.31562 5.95299 6.11875 5.43846 5.8522 4.96028C5.79747 4.88836 5.73242 4.82421 5.65457 4.78587C5.57797 4.73852 5.48856 4.717 5.40573 4.71477C5.37854 4.71101 5.35793 4.72654 5.32824 4.74083C5.12702 4.86018 5.09497 5.15923 5.19448 5.37526C5.52303 6.07348 5.86065 6.77295 6.19951 7.46341C6.30808 7.68069 6.42696 7.8902 6.56646 8.08417C6.73724 8.31924 6.97701 8.38911 7.23352 8.20383ZM12.7726 8.09484C12.6763 8.45855 12.9046 8.81193 13.2791 8.9096C14.492 9.22415 15.6983 9.51939 16.8856 9.88557C18.1882 10.2861 19.4425 10.8362 20.6134 11.522C20.6394 11.5347 20.6241 11.5786 20.5891 11.5646C18.0352 10.458 15.3218 9.77086 12.5577 9.51806C12.493 9.51833 12.4271 9.52762 12.3677 9.55621C12.3083 9.58479 12.2568 9.62365 12.213 9.67278C11.9279 10.0656 12.2207 10.621 12.7024 10.6783L15.836 11.0648C15.8632 11.0686 15.8789 11.0891 15.8751 11.1162C15.8726 11.1342 15.852 11.1498 15.8326 11.1563L11.5706 11.2485C12.9647 11.3214 14.3422 11.4471 15.7138 11.6824C15.9845 11.729 15.9356 12.0165 15.6599 12.006C13.2435 11.9116 10.8449 12.0219 8.51299 12.7207C5.15007 13.7277 1.5446 11.7404 0.686754 8.38521C-0.187077 4.94505 1.92967 1.52229 5.38996 0.813721C5.6756 0.752001 5.95751 0.717371 6.24191 0.664674C6.3363 0.650116 6.42944 0.644575 6.52258 0.639041C6.63385 0.636009 6.74387 0.642001 6.86171 0.658267C7.3681 0.737361 7.86916 0.788123 8.36026 0.911083C8.77102 1.01376 9.15368 1.18612 9.5454 1.35973C10.2172 1.64557 10.8635 1.98306 11.5469 2.2521C13.7371 3.11535 15.8609 4.12574 17.786 5.50412C18.7784 6.21122 19.7671 6.94538 20.7121 7.72868C19.5537 6.95269 18.3733 6.20127 17.1521 5.54535C16.7135 5.31009 16.4353 5.78662 16.838 6.0813L17.2836 6.40027C17.2914 6.41054 17.2901 6.41956 17.2798 6.42734C17.2798 6.42734 17.2695 6.43511 17.2617 6.42484L14.0303 4.93971C13.37 4.63708 12.6408 5.23527 12.8503 5.92625C12.8988 6.04329 13.0054 6.14077 13.1273 6.19438C13.9248 6.50676 14.748 6.76753 15.5211 7.12252C16.4162 7.53113 17.3203 7.94097 18.1435 8.46839C19.4939 9.32606 20.7944 10.278 22.1088 11.195C22.1854 11.2424 22.1302 11.3083 22.0535 11.261C19.4694 9.57095 16.6107 8.33037 13.6097 7.58511C13.2455 7.47966 12.869 7.73114 12.7726 8.09484ZM12.0369 7.46916C12.2572 5.60532 11.6159 4.02715 10.1988 2.78326C8.40198 1.2111 5.65138 1.06132 3.68265 2.40796C3.46862 2.55313 3.39555 2.68098 3.49914 2.93436C3.65373 3.28673 3.76956 3.65213 3.89571 4.00977C3.98241 4.25163 3.95128 4.47723 3.66189 4.56602C3.40095 4.64954 3.2474 4.49041 3.16727 4.26786C3.0452 3.94756 2.93345 3.61948 2.81263 3.29016C2.80606 3.27086 2.79042 3.2503 2.77353 3.23877C2.72163 3.21322 2.66351 3.2328 2.63915 3.27542C2.61355 3.32706 2.58919 3.36966 2.55452 3.42004C1.47345 4.76047 1.11667 6.27444 1.45823 7.94917C1.97403 10.5031 4.3426 12.2829 7.09929 12.1209C8.34761 12.045 9.51725 11.5352 10.4198 10.685C11.3211 9.84391 11.8947 8.70011 12.0369 7.46916ZM6.57325 9.10581C6.49132 9.03013 6.27908 9.02842 6.16159 9.07657C5.96659 9.1508 5.98237 9.43802 6.08686 9.61796C6.31023 10.0074 6.79059 10.5427 6.9822 10.5599C7.10129 10.5672 7.28349 10.5188 7.35158 10.427C7.42091 10.3262 7.45205 10.1007 7.3895 10.0185C7.12897 9.69745 6.86595 9.39449 6.57325 9.10581ZM8.1879 9.05281C7.95526 8.86437 7.44098 9.24397 7.6002 9.49583C7.79728 9.80809 8.07559 10.0672 8.32546 10.3316C8.46213 10.4792 8.77124 10.4483 8.8868 10.2803C8.89711 10.2725 8.89959 10.2545 8.90084 10.2455C8.92983 10.1023 8.91973 9.90786 8.84403 9.78706C8.6601 9.5134 8.43618 9.26179 8.1879 9.05281Z" fill="white"/>
</svg>
