<svg width="60" height="71" viewBox="0 0 60 71" fill="none" xmlns="http://www.w3.org/2000/svg">
<path d="M3.41672 48.6417L30.0001 28.0167L56.5834 48.6417C54.8112 53.4694 52.2604 57.8242 48.9311 61.706C45.6017 65.5878 41.7358 68.658 37.3334 70.9167V51.7583C37.3334 50.7194 36.9814 49.8492 36.2774 49.1477C35.5734 48.4461 34.7032 48.0941 33.6667 48.0917H26.3334C25.2945 48.0917 24.4231 48.4437 23.7191 49.1477C23.0151 49.8517 22.6643 50.7219 22.6667 51.7583V70.9167C18.2667 68.6556 14.4008 65.5853 11.0691 61.706C7.73728 57.8267 5.1865 53.4719 3.41672 48.6417ZM0.66672 33.7V16.4667C0.66672 14.9389 1.11039 13.5492 1.99772 12.2977C2.88505 11.0461 4.03028 10.1441 5.43339 9.59166L27.4334 1.34166C28.2889 1.03611 29.1445 0.883331 30.0001 0.883331C30.8556 0.883331 31.7112 1.03611 32.5667 1.34166L54.5667 9.59166C55.9723 10.1417 57.1187 11.0437 58.0061 12.2977C58.8934 13.5517 59.3358 14.9413 59.3334 16.4667V33.7C59.3334 34.9222 59.2723 36.1298 59.1501 37.3227C59.0278 38.5156 58.8751 39.7219 58.6917 40.9417L34.4917 22.2417C33.1473 21.2028 31.6501 20.6833 30.0001 20.6833C28.3501 20.6833 26.8528 21.2028 25.5084 22.2417L1.30839 40.9417C1.06394 39.7194 0.895276 38.5131 0.802387 37.3227C0.709498 36.1322 0.664276 34.9247 0.66672 33.7Z" fill="#421963"/>
</svg>
