<svg width="16" height="18" viewBox="0 0 16 18" fill="none" xmlns="http://www.w3.org/2000/svg">
<path d="M13 17.3334C12.3056 17.3334 11.7153 17.0903 11.2292 16.6042C10.7431 16.1181 10.5 15.5278 10.5 14.8334C10.5 14.7361 10.5069 14.6353 10.5208 14.5309C10.5347 14.4264 10.5556 14.3328 10.5833 14.25L4.70833 10.8334C4.47222 11.0417 4.20833 11.205 3.91667 11.3234C3.625 11.4417 3.31944 11.5006 3 11.5C2.30556 11.5 1.71528 11.257 1.22917 10.7709C0.743056 10.2847 0.5 9.69446 0.5 9.00002C0.5 8.30558 0.743056 7.7153 1.22917 7.22919C1.71528 6.74308 2.30556 6.50002 3 6.50002C3.31944 6.50002 3.625 6.55919 3.91667 6.67752C4.20833 6.79585 4.47222 6.95891 4.70833 7.16669L10.5833 3.75002C10.5556 3.66669 10.5347 3.57308 10.5208 3.46919C10.5069 3.3653 10.5 3.26446 10.5 3.16669C10.5 2.47224 10.7431 1.88196 11.2292 1.39585C11.7153 0.909743 12.3056 0.666687 13 0.666687C13.6944 0.666687 14.2847 0.909743 14.7708 1.39585C15.2569 1.88196 15.5 2.47224 15.5 3.16669C15.5 3.86113 15.2569 4.45141 14.7708 4.93752C14.2847 5.42363 13.6944 5.66669 13 5.66669C12.6806 5.66669 12.375 5.6078 12.0833 5.49002C11.7917 5.37224 11.5278 5.20891 11.2917 5.00002L5.41667 8.41669C5.44444 8.50002 5.46528 8.59391 5.47917 8.69835C5.49306 8.8028 5.5 8.90335 5.5 9.00002C5.5 9.09724 5.49306 9.19808 5.47917 9.30252C5.46528 9.40696 5.44444 9.50058 5.41667 9.58335L11.2917 13C11.5278 12.7917 11.7917 12.6286 12.0833 12.5109C12.375 12.3931 12.6806 12.3339 13 12.3334C13.6944 12.3334 14.2847 12.5764 14.7708 13.0625C15.2569 13.5486 15.5 14.1389 15.5 14.8334C15.5 15.5278 15.2569 16.1181 14.7708 16.6042C14.2847 17.0903 13.6944 17.3334 13 17.3334Z" fill="white"/>
</svg>
