<svg width="17" height="15" viewBox="0 0 17 15" fill="none" xmlns="http://www.w3.org/2000/svg">
<g clip-path="url(#clip0_1_3100)">
<path d="M16.4349 6.03095C16.4361 5.65503 16.3041 5.34659 16.0478 5.08494C15.5949 4.62166 15.0252 4.34676 14.4216 4.16128C13.748 3.95428 13.0574 3.80109 12.3718 3.63425C12.27 3.6094 12.2327 3.5796 12.2381 3.47651C12.2455 3.33285 12.2401 3.18877 12.2401 3.02855C12.3064 3.02524 12.361 3.02068 12.4157 3.02068C12.9063 3.02027 13.3969 3.01903 13.8875 3.02068C14.0291 3.0211 14.1574 2.99957 14.2332 2.86336C14.311 2.72259 14.2663 2.59674 14.1852 2.47253C14.0668 2.29078 13.9583 2.10282 13.8374 1.92356C13.7856 1.84696 13.7894 1.79024 13.8391 1.71572C13.9645 1.52652 14.08 1.33069 14.2026 1.13983C14.2783 1.02226 14.3036 0.901364 14.232 0.775919C14.1632 0.655028 14.0506 0.619423 13.9169 0.619837C13.2714 0.621907 12.6256 0.619837 11.9802 0.621079C11.7334 0.621493 11.6216 0.73369 11.6212 0.982924C11.6195 1.75754 11.6204 2.53256 11.6204 3.30718C11.6204 3.36804 11.6204 3.4289 11.6204 3.46202C10.3407 3.3995 9.07504 3.33781 7.79782 3.27571V2.40049H7.96632C8.45692 2.40049 8.94753 2.39925 9.43813 2.40132C9.57931 2.40174 9.70682 2.38104 9.78507 2.24566C9.86704 2.10365 9.81777 1.97986 9.73787 1.85607C9.61988 1.67432 9.51058 1.48677 9.39052 1.30627C9.34125 1.23216 9.33628 1.1771 9.38803 1.10009C9.51762 0.907574 9.63851 0.709264 9.75857 0.510125C9.91714 0.247228 9.78093 0.00296238 9.47373 0.00172035C8.82829 -0.000763707 8.18244 6.43134e-05 7.53699 0.00172035C7.28321 0.00213436 7.16852 0.117229 7.16811 0.373087C7.16687 1.30295 7.1677 2.23241 7.1677 3.16227V3.34858C5.87764 3.426 4.60663 3.57918 3.35011 3.91287V3.0302C3.40724 3.02689 3.46148 3.0211 3.51571 3.02068C4.00632 3.01985 4.49692 3.01861 4.98752 3.02068C5.13532 3.02151 5.2678 2.99708 5.34191 2.85177C5.41147 2.71514 5.36634 2.59384 5.2885 2.4746C5.17051 2.29285 5.0608 2.10572 4.94074 1.92521C4.89147 1.8511 4.88774 1.79438 4.93825 1.71821C5.06701 1.52486 5.18873 1.32697 5.30879 1.12824C5.46653 0.867415 5.32825 0.621907 5.0223 0.620665C4.39756 0.618595 3.7724 0.619837 3.14766 0.619837C2.81728 0.619837 2.72081 0.713818 2.72081 1.04047C2.7204 2.00636 2.71833 2.97224 2.72371 3.93771C2.72454 4.06109 2.68604 4.11036 2.57094 4.1588C2.21034 4.31032 1.84849 4.46392 1.50694 4.6523C1.05774 4.89946 0.703343 5.24474 0.565063 5.76391V12.5508C0.764202 13.2418 1.30904 13.5899 1.90314 13.8789C2.77878 14.3049 3.71816 14.524 4.6708 14.6871C6.47589 14.9955 8.29339 15.0626 10.1196 14.9442C11.343 14.8651 12.5531 14.7016 13.7372 14.3762C14.4257 14.1869 15.0972 13.951 15.6876 13.5345C16.0362 13.2885 16.3289 12.9942 16.413 12.5516C16.4303 12.4614 16.4312 12.367 16.4312 12.2742C16.432 10.193 16.4287 8.11135 16.4345 6.03012L16.4349 6.03095ZM12.2488 1.24499H13.4002C13.3195 1.37748 13.2487 1.49961 13.1717 1.6176C13.0831 1.75381 13.0822 1.88547 13.1704 2.02209C13.245 2.13718 13.3149 2.25601 13.3973 2.39014H12.2488V1.24458V1.24499ZM3.35549 1.24955H4.50437C4.41784 1.38824 4.34291 1.51037 4.2659 1.63126C4.18558 1.75712 4.18475 1.88215 4.26424 2.00843C4.34001 2.1289 4.41536 2.25021 4.5023 2.39014H3.35549V1.24955ZM7.79616 0.624392H8.95167C8.873 0.753563 8.80676 0.87197 8.731 0.983752C8.63205 1.12948 8.62957 1.26818 8.72851 1.41474C8.80262 1.52404 8.86762 1.63913 8.94835 1.77037H7.79616V0.624392ZM6.16662 14.266C5.95299 14.242 5.74474 14.2217 5.53774 14.194C4.51845 14.0569 3.50785 13.8723 2.55231 13.4794C2.20247 13.3357 1.87044 13.1399 1.54999 12.9371C1.28751 12.7706 1.15627 12.5172 1.18111 12.1856C1.20223 11.9053 1.18525 11.6222 1.18525 11.3539C1.52391 11.5286 1.84767 11.7199 2.19005 11.8677C3.04291 12.2365 3.94546 12.4324 4.85876 12.5798C5.29057 12.6493 5.72529 12.7011 6.16703 12.7619V14.2656L6.16662 14.266ZM1.18525 7.09703C1.18525 7.07798 1.1898 7.05894 1.19063 7.05314C1.51315 7.2233 1.83525 7.39056 2.15445 7.56403C2.1855 7.581 2.21365 7.63524 2.21365 7.67209C2.21614 8.82717 2.21531 9.98226 2.21407 11.1374C2.21407 11.151 2.20579 11.1647 2.19626 11.1949C1.8634 11.0297 1.53592 10.8653 1.31442 10.561C1.2457 10.4667 1.19187 10.3362 1.19063 10.222C1.18111 9.18032 1.18525 8.13867 1.18525 7.09703ZM2.64712 7.07798C2.78167 6.87677 2.9775 6.75174 3.18119 6.64203C3.81918 6.29799 4.51224 6.11706 5.21812 5.98417C6.81041 5.68442 8.41552 5.63805 10.0285 5.75729C11.0346 5.83181 12.0269 5.98003 12.9891 6.2926C13.3973 6.42509 13.7935 6.58572 14.1367 6.85276C14.2175 6.91569 14.299 6.9782 14.3934 7.05148C12.2484 8.20864 4.94653 8.2103 2.64712 7.07798ZM8.17871 8.58995V9.93755C7.00168 10.193 6.33181 10.9146 6.16414 12.1285C5.86646 12.0937 5.56672 12.0585 5.25663 12.0225V8.3759C6.22831 8.44711 7.19792 8.51791 8.17871 8.58995ZM4.61988 8.26205V11.9103C4.45427 11.8776 4.29405 11.854 4.13797 11.8138C3.73928 11.7112 3.34224 11.6006 2.94479 11.4938C2.87441 11.4748 2.83384 11.4441 2.83425 11.3568C2.83756 10.2013 2.83674 9.04536 2.83715 7.88985C2.83715 7.87495 2.84336 7.86005 2.8475 7.84059C3.43705 7.98094 4.02453 8.12046 4.61988 8.26246V8.26205ZM10.1978 14.319C9.05889 14.4014 7.93651 14.4002 6.8191 14.3207C6.80875 14.3029 6.79923 14.2942 6.79923 14.2855C6.79923 13.5684 6.77646 12.8505 6.80502 12.1347C6.84021 11.2495 7.60117 10.554 8.49336 10.5466C9.37685 10.5391 10.1494 11.2317 10.1912 12.1227C10.2252 12.8476 10.1982 13.5755 10.1982 14.319H10.1978ZM10.2069 10.6786C9.83185 10.2746 9.36899 10.0328 8.81711 9.95038V8.59036C9.79666 8.51874 10.7671 8.44794 11.752 8.3759C11.752 8.4823 11.7495 8.61065 11.7524 8.73858C11.757 8.93399 11.8899 9.07392 12.065 9.07144C12.2356 9.06896 12.3648 8.93482 12.3701 8.74603C12.3747 8.58622 12.371 8.42641 12.371 8.26495C12.9651 8.12294 13.553 7.98259 14.1549 7.83852C14.157 7.88696 14.1612 7.93664 14.1612 7.98632C14.1612 9.09131 14.1595 10.1967 14.1641 11.3017C14.1645 11.418 14.1376 11.4777 14.0171 11.5071C13.5012 11.6325 12.9879 11.7666 12.4732 11.8962C12.4451 11.9033 12.414 11.9 12.3706 11.902C12.3706 11.7865 12.3747 11.6789 12.3697 11.5712C12.3615 11.3858 12.2257 11.2516 12.0563 11.2545C11.8858 11.257 11.7578 11.392 11.7524 11.5799C11.7483 11.7141 11.7495 11.8482 11.7475 11.9823C11.7475 11.9915 11.7392 12.0006 11.7284 12.0229C11.4361 12.0585 11.1364 12.095 10.823 12.133C10.7746 11.5679 10.5816 11.0827 10.2061 10.679L10.2069 10.6786ZM15.8097 12.3835C15.8044 12.6145 15.6532 12.7706 15.4893 12.9093C15.1697 13.1797 14.7958 13.3552 14.4091 13.5026C13.375 13.8959 12.2969 14.0967 11.2026 14.2259C11.0851 14.2395 10.9671 14.2515 10.8354 14.2656V12.7628C12.5589 12.5342 14.2862 12.3185 15.8118 11.3332C15.8118 11.6921 15.818 12.0378 15.8097 12.3835ZM15.6313 10.6339C15.4015 10.886 15.1092 11.0438 14.79 11.2011C14.7863 11.1303 14.7813 11.0815 14.7813 11.0322C14.7809 9.93382 14.7822 8.83545 14.7793 7.73708C14.7793 7.63234 14.8054 7.57645 14.9076 7.52635C15.2111 7.37855 15.5054 7.21212 15.8126 7.04776V7.18645C15.8126 8.17138 15.8097 9.15631 15.8151 10.1412C15.816 10.3342 15.758 10.4948 15.6313 10.6335V10.6339ZM15.6922 6.25452C15.4972 6.51824 15.2223 6.67846 14.9391 6.83082C14.5582 6.24789 13.974 5.98789 13.3687 5.76805C12.5403 5.46707 11.6779 5.31181 10.8056 5.2079C9.61822 5.06672 8.42711 5.04064 7.23435 5.11599C5.92277 5.1992 4.62692 5.37516 3.39234 5.85914C3.20107 5.93407 3.01559 6.02722 2.83508 6.12617C2.52871 6.29426 2.25836 6.50747 2.04556 6.86477C1.80668 6.67639 1.56407 6.51741 1.36162 6.31827C1.11942 6.0798 1.10824 5.81608 1.3521 5.58009C1.57442 5.36481 1.83442 5.17229 2.10891 5.02987C2.87069 4.63491 3.69912 4.43411 4.53749 4.27886C6.39019 3.93647 8.2582 3.86899 10.1353 3.99195C11.3637 4.07268 12.5772 4.23994 13.7608 4.58895C14.2613 4.73675 14.7544 4.90898 15.1933 5.19755C15.3717 5.31471 15.5402 5.45962 15.6806 5.62025C15.8656 5.83181 15.8582 6.03054 15.6922 6.25493V6.25452Z" fill="#F7F7FA"/>
<path d="M12.0754 10.4753C12.2418 10.4679 12.3751 10.3234 12.3693 10.157C12.3635 9.9926 12.217 9.85432 12.053 9.85846C11.8878 9.86301 11.7504 10.0058 11.7525 10.1715C11.7545 10.347 11.899 10.4832 12.075 10.4753H12.0754Z" fill="#F7F7FA"/>
</g>
<defs>
<clipPath id="clip0_1_3100">
<rect width="15.8698" height="15" fill="white" transform="translate(0.565063 6.10352e-05)"/>
</clipPath>
</defs>
</svg>
